<?xml version="1.0" encoding="utf-8"?>
<!-- Generator: Adobe Illustrator 26.0.1, SVG Export Plug-In . SVG Version: 6.00 Build 0)  -->
<svg version="1.1" id="Layer_1" xmlns="http://www.w3.org/2000/svg" xmlns:xlink="http://www.w3.org/1999/xlink" x="0px" y="0px"
	 viewBox="0 0 104.3 36" style="enable-background:new 0 0 104.3 36;" xml:space="preserve">
<style type="text/css">
	.st0{fill:none;stroke:#000000;stroke-miterlimit:10;}
	.st1{fill:#000000;stroke:#000000;stroke-width:0.25;stroke-miterlimit:10;}
</style>
<g id="Layer_1_00000103945973595504626330000002006347199466195869_">
	<path id="XMLID_238_" class="st0" d="M15.5,1c0,0,0,30,0,32.5c0,1.5,1.5,1.4,1.5,1.4"/>
	<polygon id="XMLID_218_" class="st0" points="6.5,8.5 10.5,8.5 15.5,13.5 20.5,8.5 24.5,8.5 24.5,12.5 19,18 15.5,14.5 12,18 
		6.5,12.5 	"/>
	<polyline id="XMLID_2_" class="st0" points="19,18 15.5,21.5 7.5,13.5 7.5,18 12.5,22.5 15.5,19.5 18.5,22.5 23.5,18 23.5,13.5 
		22,15 	"/>
	<polygon id="XMLID_199_" class="st0" points="15.5,1 12.5,4 12.5,7.5 15.6,10.6 18.5,7.5 18.5,4 	"/>
	<path id="XMLID_196_" class="st0" d="M12,5.5H3.5V20c0,0,0,11.5,12,11.5s12-11.5,12-11.5V5.5H19"/>
	<polyline id="XMLID_195_" class="st0" points="24.5,8.5 15.5,17.5 6.5,8.5 	"/>
	<polyline id="XMLID_3_" class="st0" points="15.5,26 16.5,27 18.5,27 22.5,23 22.5,19 15.5,25.5 8.5,19 8.5,23 12.5,27 14.5,27 
		15.5,26 	"/>
</g>
<g id="Layer_4">
	<path class="st1" d="M48.5,20h0.2v0.5h-7V20h0.8c1.6,0,2-0.6,2-1.9v-5h-8.8v4.7c0,1.6,0.3,2.2,2,2.2h0.1v0.5h-6.2V20h0.1
		c1.5,0,2-0.4,2-1.8v-11c0-1.3-0.4-1.7-1.8-1.8V5h5.9v0.5c-1.8,0-2.1,0.5-2.1,2.4v4.3h8.8V7.3c0-1.3-0.4-1.8-2-1.8H42V5h6.4v0.5
		c-1.5,0-1.9,0.5-1.9,2v10.3C46.5,19.6,47,20,48.5,20z"/>
	<path class="st1" d="M98.8,4.6h-0.5c0,0.1-0.1,0.2-0.3,0.3C97.9,5,97.7,5,97.6,5h-5.7h-0.1h-0.3h-0.1h-5.7c-0.2,0-0.3,0-0.5-0.1
		c-0.1,0-0.2-0.1-0.3-0.3h-0.5v0.3l-0.3,3.7h0.5c0.1-2.3,0.6-2.8,1.7-2.8h4.3V18c0,1.3-0.3,1.9-2,1.9H88v0.5h7V20h-0.2
		c-1.5,0-2-0.4-2-2.2V5.9H97c1.1,0,1.3,0.4,1.4,2.8h0.5V5L98.8,4.6z"/>
	<path class="st1" d="M80.4,19.6h-3.7c-0.7,0-1-0.2-1-0.9V7.2c0-1.5,0.4-1.7,2-1.7h0.9V5h-7.3v0.5h0.3c1.6,0,2,0.5,2,1.9v11
		c0,1.3-0.4,1.6-1.6,1.6h-0.8v0.5h11.1l1.4-3h-0.5C82.4,18.9,82.1,19.6,80.4,19.6z"/>
	<path class="st1" d="M62.8,5.5c2.1,0.1,2.4,0.5,2.4,2.9c0,0,0,4.8,0,6.2c0,4-2.6,5.2-4.8,5.2c-2.4,0-4.8-1.9-4.8-5.2
		c0-1.4,0-7.2,0-7.2c0-1.4,0.6-1.9,2-1.9h0.2V5h-6.4v0.5c1.7,0,2.1,0.3,2.1,1.9c0,0,0,6,0,7.3c0,5,3.9,6.5,6.4,6.5
		c4.5,0,6.4-3.4,6.4-6.5c0-1,0-6.9,0-6.9c0-1.6,0.6-2.3,2.3-2.3V5h-5.8V5.5z"/>
	<path class="st1" d="M61.3,32.9h-3.6v-0.2h0.2c0.7,0,1-0.2,1-1v-5.3c0-0.8-0.2-1-0.9-1h-0.3v-0.2c0.3,0,1.1-0.1,1.6-0.1
		s0.8,0,1.6,0c2.3,0,3.4,1,3.4,2.2c0,0.9-0.6,1.7-1.7,2l-0.4,0.1c0.3,0.3,0.5,0.6,0.9,1.1l0.7,1c0.5,0.8,1.1,1.2,1.9,1.2V33
		c-1.6,0.1-2.2-0.4-3.1-1.5L62,30.6c-0.3-0.5-0.6-0.8-0.8-1c-0.2,0-0.3,0-0.5,0c-0.3,0-0.4,0-0.6,0v2.1c0,0.8,0.3,0.9,1,0.9h0.3v0.3
		H61.3z M60,29.4c0.3,0,0.5,0,0.8,0c1.4,0,2.3-0.6,2.3-2.1c0-1.2-0.5-2.1-2.5-2.1c-0.2,0-0.4,0-0.6,0V29.4z"/>
	<path class="st1" d="M33.6,33h-2.9v-0.2c0.8,0,1-0.2,1.4-1.3l2.3-6.3l-0.1-0.3h1.1l2.7,7c0.3,0.7,0.5,0.8,1.2,0.8V33h-3.5v-0.2H36
		c0.7,0,1-0.1,1-0.4c0-0.2-0.1-0.4-0.1-0.5L36,29.5h-2.6l-0.7,2c-0.1,0.2-0.3,0.6-0.3,0.8c0,0.3,0.3,0.5,1,0.5h0.2
		C33.6,32.8,33.6,33,33.6,33z M33.6,28.9h2.2l-1.1-3L33.6,28.9z"/>
	<path class="st1" d="M42.8,32.8c-1,0-1.9-0.7-2.1-1.8h-0.2l0.3,1.9H41c0.1-0.1,0.1-0.1,0.3-0.1s1.1,0.3,1.8,0.3
		c1.5,0,2.6-0.9,2.6-2.2c0-2.3-4.1-2.8-4.1-4.6c0-0.7,0.6-1.2,1.4-1.2c0.9,0,1.7,0.6,2,1.5h0.2L45,25h-0.2c-0.1,0.1-0.1,0.1-0.2,0.1
		c-0.4,0-0.7-0.3-1.7-0.3c-1.3,0-2.3,0.8-2.3,1.8c0,2.2,4.1,2.8,4.1,4.6C44.5,32.3,43.6,32.8,42.8,32.8z"/>
	<path class="st1" d="M50.2,32.7L50.2,32.7c-0.8,0-1-0.3-1-1.1v-2.4h4.5v2.6c0,0.7-0.2,1-0.9,1h-0.4V33h3.3v-0.2h-0.1
		c-0.7,0-0.9-0.2-0.9-1.1v-5.3c0-0.8,0.2-1,0.9-1v-0.2h-3v0.2h0.2c0.7,0,0.9,0.3,0.9,0.9v2.5h-4.5v-2.2c0-1,0.1-1.2,1-1.2v-0.2h-2.7
		v0.2c0.6,0.1,0.8,0.2,0.8,0.9v5.6c0,0.7-0.2,0.9-0.9,0.9h-0.1V33h2.9V32.7z"/>
	<path class="st1" d="M70.3,32.7c-0.9,0-1.1-0.3-1.1-1v-5.4c0-0.9,0.3-1,1.1-1v-0.2h-3.1v0.2c0.7,0,1,0.2,1,0.9v5.4
		c0,0.9-0.2,1.1-1,1.1V33h3.1V32.7z"/>
	<path class="st1" d="M76.4,33h-4.1v-0.2h0.2c0.7,0,1-0.2,1-0.9v-5.5c0-0.8-0.2-1-1-1h-0.3v-0.2c0.5,0,1.1-0.1,1.8-0.1
		c0.7,0,1.5,0,2.1,0c3.4,0,4.8,1.7,4.8,3.8C81.1,30.7,79.6,33,76.4,33z M75.7,32.7c1.7,0,2.4-0.2,3.2-1c0.5-0.5,1.1-1.4,1.1-2.7
		c0-0.9-0.3-2-1-2.7c-0.6-0.6-1.5-1-3.3-1c-0.5,0-0.9,0-1,0.1V32C74.6,32.5,74.6,32.7,75.7,32.7z"/>
	<path class="st1" d="M86.7,33.2c0.5,0,2.1-0.2,3.4-0.8v-1.8c0-0.5,0.3-0.8,0.9-0.8v-0.2h-3.4v0.2H88c0.8,0,1,0.2,1,1v1.6
		c-0.7,0.4-1.4,0.5-1.9,0.5c-1.5,0-3.3-1.2-3.3-3.8c0-2,1.1-3.9,3.4-3.9c1.2,0,2.3,0.5,2.6,2.1h0.3v-2.1h-0.2
		c-0.1,0.1-0.2,0.1-0.3,0.1c-0.3,0-1.2-0.4-2.5-0.4c-3.1,0-4.4,2.4-4.4,4.3C82.6,31,83.9,33.2,86.7,33.2z"/>
	<path class="st1" d="M98.8,31.1h-0.2c-0.3,1.1-0.6,1.4-1.5,1.4h-2c-0.5,0-0.7-0.1-0.7-0.7v-2.7h2.1c0.5,0,0.8,0.1,0.9,1h0.2v-2.4
		h-0.2c-0.1,0.7-0.3,1-0.7,1h-2.3v-3.1h2.7c0.5,0,0.8,0.2,0.9,1.3h0.2l-0.1-1.8H92v0.2h0.3c0.9,0,1,0.3,1,1v5.4c0,0.8-0.2,1-1.2,1
		h-0.4V33h6.7L98.8,31.1z"/>
</g>
</svg>
